<svg width="21" height="20" viewBox="0 0 21 20" fill="none" xmlns="http://www.w3.org/2000/svg">
<g opacity="0.9">
<path d="M16.75 2.5H14.875V1.875C14.875 1.70924 14.8092 1.55027 14.6919 1.43306C14.5747 1.31585 14.4158 1.25 14.25 1.25C14.0842 1.25 13.9253 1.31585 13.8081 1.43306C13.6908 1.55027 13.625 1.70924 13.625 1.875V2.5H7.375V1.875C7.375 1.70924 7.30915 1.55027 7.19194 1.43306C7.07473 1.31585 6.91576 1.25 6.75 1.25C6.58424 1.25 6.42527 1.31585 6.30806 1.43306C6.19085 1.55027 6.125 1.70924 6.125 1.875V2.5H4.25C3.91848 2.5 3.60054 2.6317 3.36612 2.86612C3.1317 3.10054 3 3.41848 3 3.75V16.25C3 16.5815 3.1317 16.8995 3.36612 17.1339C3.60054 17.3683 3.91848 17.5 4.25 17.5H16.75C17.0815 17.5 17.3995 17.3683 17.6339 17.1339C17.8683 16.8995 18 16.5815 18 16.25V3.75C18 3.41848 17.8683 3.10054 17.6339 2.86612C17.3995 2.6317 17.0815 2.5 16.75 2.5ZM6.125 3.75V4.375C6.125 4.54076 6.19085 4.69973 6.30806 4.81694C6.42527 4.93415 6.58424 5 6.75 5C6.91576 5 7.07473 4.93415 7.19194 4.81694C7.30915 4.69973 7.375 4.54076 7.375 4.375V3.75H13.625V4.375C13.625 4.54076 13.6908 4.69973 13.8081 4.81694C13.9253 4.93415 14.0842 5 14.25 5C14.4158 5 14.5747 4.93415 14.6919 4.81694C14.8092 4.69973 14.875 4.54076 14.875 4.375V3.75H16.75V6.25H4.25V3.75H6.125ZM16.75 16.25H4.25V7.5H16.75V16.25ZM9.25 9.375V14.375C9.25 14.5408 9.18415 14.6997 9.06694 14.8169C8.94973 14.9342 8.79076 15 8.625 15C8.45924 15 8.30027 14.9342 8.18306 14.8169C8.06585 14.6997 8 14.5408 8 14.375V10.3859L7.65469 10.5594C7.50633 10.6336 7.33459 10.6458 7.17723 10.5933C7.01988 10.5409 6.8898 10.428 6.81562 10.2797C6.74145 10.1313 6.72924 9.95959 6.78169 9.80223C6.83414 9.64488 6.94696 9.5148 7.09531 9.44062L8.34531 8.81562C8.44063 8.76793 8.54657 8.7454 8.65305 8.75018C8.75954 8.75497 8.86303 8.7869 8.95369 8.84296C9.04435 8.89902 9.11916 8.97733 9.17103 9.07045C9.22289 9.16357 9.25008 9.26841 9.25 9.375ZM13.8719 11.7539L12.375 13.75H13.625C13.7908 13.75 13.9497 13.8158 14.0669 13.9331C14.1842 14.0503 14.25 14.2092 14.25 14.375C14.25 14.5408 14.1842 14.6997 14.0669 14.8169C13.9497 14.9342 13.7908 15 13.625 15H11.125C11.0089 15 10.8952 14.9677 10.7964 14.9067C10.6977 14.8456 10.6179 14.7583 10.566 14.6545C10.5141 14.5507 10.4921 14.4345 10.5025 14.3189C10.5129 14.2033 10.5554 14.0929 10.625 14L12.8734 11.0023C12.9246 10.9343 12.9613 10.8564 12.9813 10.7737C13.0012 10.6909 13.0041 10.6049 12.9897 10.521C12.9752 10.4371 12.9438 10.357 12.8973 10.2856C12.8508 10.2143 12.7902 10.1532 12.7192 10.1062C12.6483 10.0591 12.5684 10.027 12.4846 10.0119C12.4008 9.99678 12.3148 9.99895 12.2319 10.0183C12.149 10.0376 12.0709 10.0737 12.0024 10.1243C11.9339 10.1749 11.8764 10.2389 11.8336 10.3125C11.7938 10.3858 11.7397 10.4505 11.6744 10.5026C11.6092 10.5547 11.5343 10.5932 11.4539 10.6158C11.3736 10.6385 11.2895 10.6448 11.2067 10.6344C11.1239 10.624 11.044 10.5972 10.9717 10.5555C10.8995 10.5137 10.8363 10.4579 10.7859 10.3914C10.7356 10.3248 10.6991 10.2488 10.6785 10.1679C10.658 10.087 10.6539 10.0028 10.6664 9.92033C10.679 9.83781 10.7079 9.75865 10.7516 9.6875C10.958 9.33022 11.2766 9.05103 11.6578 8.8932C12.0391 8.73537 12.4618 8.70772 12.8603 8.81453C13.2589 8.92133 13.6111 9.15664 13.8624 9.48397C14.1136 9.8113 14.2499 10.2124 14.25 10.625C14.2513 11.0326 14.1184 11.4293 13.8719 11.7539Z" fill="#495384"/>
</g>
</svg>
