<svg width="16" height="17" viewBox="0 0 16 17" fill="none" xmlns="http://www.w3.org/2000/svg">
<path d="M13.3 14.5C11.9111 14.5 10.5389 14.1972 9.18333 13.5917C7.82778 12.9861 6.59444 12.1278 5.48333 11.0167C4.37222 9.90556 3.51389 8.67222 2.90833 7.31667C2.30278 5.96111 2 4.58889 2 3.2C2 3 2.06667 2.83333 2.2 2.7C2.33333 2.56667 2.5 2.5 2.7 2.5H5.4C5.55556 2.5 5.69444 2.55278 5.81667 2.65833C5.93889 2.76389 6.01111 2.88889 6.03333 3.03333L6.46667 5.36667C6.48889 5.54444 6.48333 5.69444 6.45 5.81667C6.41667 5.93889 6.35556 6.04444 6.26667 6.13333L4.65 7.76667C4.87222 8.17778 5.13611 8.575 5.44167 8.95833C5.74722 9.34167 6.08333 9.71111 6.45 10.0667C6.79444 10.4111 7.15556 10.7306 7.53333 11.025C7.91111 11.3194 8.31111 11.5889 8.73333 11.8333L10.3 10.2667C10.4 10.1667 10.5306 10.0917 10.6917 10.0417C10.8528 9.99167 11.0111 9.97778 11.1667 10L13.4667 10.4667C13.6222 10.5111 13.75 10.5917 13.85 10.7083C13.95 10.825 14 10.9556 14 11.1V13.8C14 14 13.9333 14.1667 13.8 14.3C13.6667 14.4333 13.5 14.5 13.3 14.5ZM4.01667 6.5L5.11667 5.4L4.83333 3.83333H3.35C3.40556 4.28889 3.48333 4.73889 3.58333 5.18333C3.68333 5.62778 3.82778 6.06667 4.01667 6.5ZM9.98333 12.4667C10.4167 12.6556 10.8583 12.8056 11.3083 12.9167C11.7583 13.0278 12.2111 13.1 12.6667 13.1333V11.6667L11.1 11.35L9.98333 12.4667Z" fill="#234DF0"/>
</svg>
