<svg width="18" height="18" viewBox="0 0 18 18" fill="none" xmlns="http://www.w3.org/2000/svg">
<g clip-path="url(#clip0_584_811)">
<path d="M15.0833 2.25H3.41667C3.10725 2.25 2.8105 2.37292 2.59171 2.59171C2.37292 2.8105 2.25 3.10725 2.25 3.41667V15.0833C2.25 15.3928 2.37292 15.6895 2.59171 15.9083C2.8105 16.1271 3.10725 16.25 3.41667 16.25H15.0833C15.3928 16.25 15.6895 16.1271 15.9083 15.9083C16.1271 15.6895 16.25 15.3928 16.25 15.0833V3.41667C16.25 3.10725 16.1271 2.8105 15.9083 2.59171C15.6895 2.37292 15.3928 2.25 15.0833 2.25ZM12.5794 7.91271L8.49604 11.996C8.44187 12.0503 8.37753 12.0933 8.30672 12.1227C8.2359 12.152 8.15999 12.1671 8.08333 12.1671C8.00667 12.1671 7.93077 12.152 7.85995 12.1227C7.78914 12.0933 7.7248 12.0503 7.67062 11.996L5.92062 10.246C5.81117 10.1366 5.74968 9.98813 5.74968 9.83333C5.74968 9.67854 5.81117 9.53008 5.92062 9.42062C6.03008 9.31117 6.17854 9.24968 6.33333 9.24968C6.48813 9.24968 6.63659 9.31117 6.74604 9.42062L8.08333 10.7586L11.754 7.08729C11.8082 7.03309 11.8725 6.9901 11.9433 6.96077C12.0141 6.93144 12.09 6.91634 12.1667 6.91634C12.2433 6.91634 12.3192 6.93144 12.39 6.96077C12.4608 6.9901 12.5252 7.03309 12.5794 7.08729C12.6336 7.14149 12.6766 7.20583 12.7059 7.27664C12.7352 7.34746 12.7503 7.42335 12.7503 7.5C12.7503 7.57665 12.7352 7.65254 12.7059 7.72336C12.6766 7.79417 12.6336 7.85851 12.5794 7.91271Z" fill="#234DF0"/>
</g>
<defs>
<clipPath id="clip0_584_811">
<rect width="18" height="18" fill="white"/>
</clipPath>
</defs>
</svg>
