<svg width="16" height="17" viewBox="0 0 16 17" fill="none" xmlns="http://www.w3.org/2000/svg">
<path d="M2.1725 3.12498C2.11871 3.17161 2.0755 3.22918 2.04575 3.29385C2.016 3.35852 2.0004 3.4288 2 3.49998V14C2 14.1326 2.05268 14.2598 2.14645 14.3535C2.24021 14.4473 2.36739 14.5 2.5 14.5C2.63261 14.5 2.75979 14.4473 2.85355 14.3535C2.94732 14.2598 3 14.1326 3 14V11.2356C4.67438 9.91311 6.11687 10.6262 7.77812 11.4487C8.80312 11.9556 9.90687 12.5019 11.0906 12.5019C11.9613 12.5019 12.8744 12.205 13.8294 11.3769C13.8832 11.3302 13.9264 11.2727 13.9561 11.208C13.9859 11.1433 14.0015 11.073 14.0019 11.0019V3.49998C14.0016 3.40401 13.9738 3.31013 13.9217 3.22956C13.8695 3.14898 13.7953 3.08511 13.7079 3.04557C13.6204 3.00603 13.5234 2.99249 13.4285 3.00657C13.3336 3.02066 13.2447 3.06176 13.1725 3.12498C11.4225 4.63936 9.94 3.90561 8.22188 3.05498C6.44188 2.17248 4.42375 1.17436 2.1725 3.12498ZM13 10.7656C11.3256 12.0881 9.88313 11.3744 8.22188 10.5525C6.65938 9.78061 4.92125 8.91936 3 10.0275V3.73686C4.67438 2.41436 6.11687 3.12748 7.77812 3.94936C9.34062 4.72123 11.0794 5.58248 13 4.47436V10.7656Z" fill="#495384"/>
</svg>
