<svg width="16" height="17" viewBox="0 0 16 17" fill="none" xmlns="http://www.w3.org/2000/svg">
<path d="M14.2069 5.08561L11.4144 2.29249C11.3215 2.1996 11.2113 2.12592 11.0899 2.07565C10.9686 2.02539 10.8385 1.99951 10.7072 1.99951C10.5759 1.99951 10.4458 2.02539 10.3245 2.07565C10.2031 2.12592 10.0929 2.1996 10 2.29249L2.29313 9.99999C2.19987 10.0925 2.12593 10.2026 2.0756 10.324C2.02528 10.4453 1.99959 10.5755 2.00001 10.7069V13.5C2.00001 13.7652 2.10536 14.0196 2.2929 14.2071C2.48043 14.3946 2.73479 14.5 3 14.5H5.79313C5.9245 14.5004 6.05464 14.4747 6.17599 14.4244C6.29735 14.3741 6.40748 14.3001 6.5 14.2069L14.2069 6.49999C14.2998 6.40712 14.3734 6.29687 14.4237 6.17553C14.474 6.05419 14.4999 5.92414 14.4999 5.7928C14.4999 5.66146 14.474 5.5314 14.4237 5.41006C14.3734 5.28872 14.2998 5.17847 14.2069 5.08561ZM5.79313 13.5H3V10.7069L8.5 5.20686L11.2931 7.99999L5.79313 13.5ZM12 7.29249L9.20688 4.49999L10.7069 2.99999L13.5 5.79249L12 7.29249Z" fill="#495384"/>
</svg>
