<svg width="16" height="17" viewBox="0 0 16 17" fill="none" xmlns="http://www.w3.org/2000/svg">
<path d="M13.5 3.5H2.5C2.36739 3.5 2.24021 3.55268 2.14645 3.64645C2.05268 3.74021 2 3.86739 2 4C2 4.13261 2.05268 4.25979 2.14645 4.35355C2.24021 4.44732 2.36739 4.5 2.5 4.5H3V13.5C3 13.7652 3.10536 14.0196 3.29289 14.2071C3.48043 14.3946 3.73478 14.5 4 14.5H12C12.2652 14.5 12.5196 14.3946 12.7071 14.2071C12.8946 14.0196 13 13.7652 13 13.5V4.5H13.5C13.6326 4.5 13.7598 4.44732 13.8536 4.35355C13.9473 4.25979 14 4.13261 14 4C14 3.86739 13.9473 3.74021 13.8536 3.64645C13.7598 3.55268 13.6326 3.5 13.5 3.5ZM12 13.5H4V4.5H12V13.5ZM5 2C5 1.86739 5.05268 1.74021 5.14645 1.64645C5.24021 1.55268 5.36739 1.5 5.5 1.5H10.5C10.6326 1.5 10.7598 1.55268 10.8536 1.64645C10.9473 1.74021 11 1.86739 11 2C11 2.13261 10.9473 2.25979 10.8536 2.35355C10.7598 2.44732 10.6326 2.5 10.5 2.5H5.5C5.36739 2.5 5.24021 2.44732 5.14645 2.35355C5.05268 2.25979 5 2.13261 5 2Z" fill="#495384"/>
</svg>
