<svg width="16" height="17" viewBox="0 0 16 17" fill="none" xmlns="http://www.w3.org/2000/svg">
<path d="M15.9998 9C15.9998 9.13261 15.9472 9.25978 15.8534 9.35355C15.7596 9.44732 15.6324 9.5 15.4998 9.5H14.4998V10.5C14.4998 10.6326 14.4472 10.7598 14.3534 10.8536C14.2596 10.9473 14.1324 11 13.9998 11C13.8672 11 13.7401 10.9473 13.6463 10.8536C13.5525 10.7598 13.4998 10.6326 13.4998 10.5V9.5H12.4998C12.3672 9.5 12.2401 9.44732 12.1463 9.35355C12.0525 9.25978 11.9998 9.13261 11.9998 9C11.9998 8.86739 12.0525 8.74021 12.1463 8.64644C12.2401 8.55268 12.3672 8.5 12.4998 8.5H13.4998V7.5C13.4998 7.36739 13.5525 7.24021 13.6463 7.14644C13.7401 7.05268 13.8672 7 13.9998 7C14.1324 7 14.2596 7.05268 14.3534 7.14644C14.4472 7.24021 14.4998 7.36739 14.4998 7.5V8.5H15.4998C15.6324 8.5 15.7596 8.55268 15.8534 8.64644C15.9472 8.74021 15.9998 8.86739 15.9998 9ZM12.383 12.6781C12.4683 12.7797 12.5098 12.9111 12.4983 13.0433C12.4869 13.1755 12.4233 13.2978 12.3217 13.3831C12.2201 13.4685 12.0887 13.51 11.9565 13.4985C11.8243 13.487 11.7021 13.4235 11.6167 13.3219C10.3592 11.8244 8.63046 11 6.74984 11C4.86921 11 3.14046 11.8244 1.88296 13.3219C1.7976 13.4234 1.67539 13.4869 1.54324 13.4983C1.41108 13.5097 1.2798 13.4682 1.17828 13.3828C1.07675 13.2974 1.01329 13.1752 1.00186 13.0431C0.990433 12.9109 1.03197 12.7797 1.11734 12.6781C2.05109 11.5669 3.21234 10.7775 4.50296 10.355C3.71915 9.86681 3.11566 9.13663 2.7838 8.27492C2.45193 7.41321 2.40974 6.46685 2.66362 5.57903C2.91749 4.69121 3.45362 3.91022 4.19088 3.35423C4.92814 2.79824 5.82643 2.4975 6.74984 2.4975C7.67325 2.4975 8.57153 2.79824 9.30879 3.35423C10.0461 3.91022 10.5822 4.69121 10.8361 5.57903C11.0899 6.46685 11.0477 7.41321 10.7159 8.27492C10.384 9.13663 9.78052 9.86681 8.99671 10.355C10.2873 10.7775 11.4486 11.5669 12.383 12.6781ZM6.74984 10C7.39263 10 8.02098 9.80939 8.55544 9.45227C9.0899 9.09516 9.50646 8.58758 9.75245 7.99372C9.99843 7.39986 10.0628 6.74639 9.93739 6.11595C9.81199 5.48552 9.50245 4.90642 9.04793 4.4519C8.59341 3.99738 8.01432 3.68785 7.38388 3.56244C6.75344 3.43704 6.09998 3.5014 5.50612 3.74739C4.91226 3.99337 4.40468 4.40993 4.04756 4.94439C3.69045 5.47885 3.49984 6.10721 3.49984 6.75C3.50083 7.61165 3.84356 8.43772 4.45284 9.047C5.06211 9.65628 5.88819 9.99901 6.74984 10Z" fill="#495384"/>
</svg>
