<svg width="20" height="20" viewBox="0 0 20 20" fill="none" xmlns="http://www.w3.org/2000/svg">
<path d="M19.0202 14.6102C18.4865 13.691 17.6932 11.0899 17.6932 7.69264C17.6932 5.65242 16.8827 3.69577 15.4401 2.25312C13.9974 0.810472 12.0408 0 10.0006 0C7.96035 0 6.00369 0.810472 4.56104 2.25312C3.11839 3.69577 2.30792 5.65242 2.30792 7.69264C2.30792 11.0909 1.51366 13.691 0.979979 14.6102C0.843695 14.844 0.771446 15.1095 0.770517 15.38C0.769588 15.6505 0.840013 15.9165 0.974689 16.1512C1.10937 16.3858 1.30353 16.5808 1.5376 16.7164C1.77168 16.8521 2.03738 16.9236 2.30792 16.9238H6.23213C6.40961 17.7923 6.8816 18.5728 7.56828 19.1333C8.25495 19.6938 9.11415 20 10.0006 20C10.887 20 11.7462 19.6938 12.4328 19.1333C13.1195 18.5728 13.5915 17.7923 13.769 16.9238H17.6932C17.9637 16.9234 18.2292 16.8518 18.4632 16.7161C18.6971 16.5804 18.8911 16.3854 19.0257 16.1508C19.1603 15.9161 19.2306 15.6502 19.2296 15.3798C19.2287 15.1093 19.1564 14.8439 19.0202 14.6102ZM10.0006 18.4623C9.52345 18.4622 9.0581 18.3142 8.66858 18.0386C8.27906 17.7631 7.98451 17.3736 7.82547 16.9238H12.1757C12.0166 17.3736 11.7221 17.7631 11.3325 18.0386C10.943 18.3142 10.4777 18.4622 10.0006 18.4623ZM2.30792 15.3853C3.04834 14.1121 3.84645 11.162 3.84645 7.69264C3.84645 6.06047 4.49483 4.49515 5.64895 3.34103C6.80307 2.18691 8.36839 1.53853 10.0006 1.53853C11.6327 1.53853 13.1981 2.18691 14.3522 3.34103C15.5063 4.49515 16.1547 6.06047 16.1547 7.69264C16.1547 11.1591 16.9509 14.1093 17.6932 15.3853H2.30792Z" fill="#495384"/>
</svg>
